<?xml version="1.0" encoding="UTF-8"?>
<svg xmlns="http://www.w3.org/2000/svg" xmlns:xlink="http://www.w3.org/1999/xlink" width="22px" height="22px" viewBox="0 0 22 22" version="1.1">
<g id="surface1">
<path style=" stroke:none;fill-rule:nonzero;fill:rgb(0.392157%,0.392157%,0.392157%);fill-opacity:1;" d="M 8.25 7.691406 C 8.367188 7.71875 8.476562 7.757812 8.585938 7.804688 C 8.617188 7.816406 8.644531 7.828125 8.675781 7.839844 C 9.136719 8.023438 9.613281 8.273438 9.964844 8.632812 C 10.230469 8.902344 10.476562 8.972656 10.847656 9.035156 C 10.945312 9.054688 11.046875 9.074219 11.148438 9.09375 C 11.21875 9.109375 11.21875 9.109375 11.292969 9.125 C 11.457031 9.15625 11.613281 9.203125 11.773438 9.257812 C 11.863281 9.285156 11.863281 9.285156 11.988281 9.28125 C 12.0625 9.210938 12.132812 9.140625 12.203125 9.066406 C 12.675781 8.59375 13.289062 8.410156 13.945312 8.40625 C 14.652344 8.414062 15.242188 8.640625 15.761719 9.140625 C 16.285156 9.6875 16.542969 10.324219 16.542969 11.085938 C 16.503906 11.71875 16.269531 12.355469 15.816406 12.8125 C 15.785156 12.839844 15.757812 12.863281 15.726562 12.890625 C 15.738281 12.9375 15.738281 12.9375 15.75 12.980469 C 15.785156 13.109375 15.820312 13.234375 15.855469 13.363281 C 15.871094 13.414062 15.871094 13.414062 15.882812 13.464844 C 15.921875 13.609375 15.941406 13.726562 15.941406 13.878906 C 15.972656 13.878906 16 13.882812 16.03125 13.882812 C 16.382812 13.910156 16.722656 13.964844 17.070312 14.03125 C 17.121094 14.042969 17.175781 14.050781 17.230469 14.0625 C 17.359375 14.085938 17.488281 14.113281 17.617188 14.136719 C 17.628906 14.097656 17.644531 14.0625 17.65625 14.023438 C 17.859375 13.441406 18.179688 12.992188 18.726562 12.695312 C 19.289062 12.433594 19.894531 12.359375 20.496094 12.527344 C 21.152344 12.765625 21.582031 13.203125 21.882812 13.816406 C 22.105469 14.363281 22.082031 15.054688 21.855469 15.59375 C 21.664062 15.960938 21.394531 16.351562 21.011719 16.542969 C 21.070312 16.722656 21.140625 16.894531 21.21875 17.066406 C 21.445312 17.585938 21.589844 18.140625 21.617188 18.707031 C 21.636719 18.9375 21.722656 19.039062 21.871094 19.207031 C 21.996094 19.445312 22.019531 19.636719 22.019531 19.902344 C 22.019531 19.9375 22.019531 19.976562 22.019531 20.011719 C 22.019531 20.089844 22.019531 20.167969 22.019531 20.246094 C 22.019531 20.363281 22.019531 20.480469 22.019531 20.601562 C 22.019531 20.675781 22.019531 20.75 22.019531 20.828125 C 22.023438 20.863281 22.023438 20.898438 22.023438 20.933594 C 22.019531 21.230469 21.933594 21.453125 21.734375 21.675781 C 21.6875 21.714844 21.6875 21.714844 21.636719 21.757812 C 21.605469 21.785156 21.574219 21.8125 21.539062 21.84375 C 21.292969 22.019531 21.0625 22.011719 20.769531 22.011719 C 20.722656 22.011719 20.675781 22.011719 20.628906 22.011719 C 20.46875 22.011719 20.3125 22.011719 20.15625 22.011719 C 20.042969 22.011719 19.933594 22.011719 19.820312 22.011719 C 19.546875 22.011719 19.273438 22.011719 19 22.011719 C 18.777344 22.011719 18.554688 22.011719 18.332031 22.011719 C 18.300781 22.011719 18.269531 22.011719 18.238281 22.011719 C 18.171875 22.011719 18.109375 22.011719 18.046875 22.011719 C 17.441406 22.011719 16.839844 22.011719 16.238281 22.011719 C 15.722656 22.011719 15.203125 22.011719 14.6875 22.011719 C 14.085938 22.011719 13.488281 22.011719 12.886719 22.011719 C 12.824219 22.011719 12.757812 22.011719 12.695312 22.011719 C 12.664062 22.011719 12.632812 22.011719 12.601562 22.011719 C 12.378906 22.011719 12.15625 22.011719 11.933594 22.011719 C 11.636719 22.011719 11.335938 22.011719 11.039062 22.011719 C 10.929688 22.011719 10.820312 22.011719 10.710938 22.011719 C 10.558594 22.011719 10.410156 22.011719 10.261719 22.011719 C 10.214844 22.011719 10.171875 22.011719 10.128906 22.011719 C 9.910156 22.011719 9.742188 21.992188 9.539062 21.914062 C 9.445312 21.910156 9.445312 21.910156 9.359375 21.925781 C 9.324219 21.929688 9.289062 21.933594 9.253906 21.9375 C 9.195312 21.945312 9.195312 21.945312 9.136719 21.949219 C 8.675781 22 8.214844 22.011719 7.75 22.011719 C 7.714844 22.011719 7.679688 22.011719 7.640625 22.011719 C 7.40625 22.015625 7.171875 22.015625 6.9375 22.015625 C 6.8125 22.015625 6.691406 22.015625 6.566406 22.015625 C 6.132812 22.015625 5.703125 22.015625 5.269531 22.015625 C 4.867188 22.015625 4.464844 22.015625 4.0625 22.019531 C 3.71875 22.019531 3.371094 22.019531 3.023438 22.019531 C 2.816406 22.019531 2.609375 22.019531 2.402344 22.019531 C 2.210938 22.023438 2.015625 22.023438 1.824219 22.019531 C 1.753906 22.019531 1.683594 22.019531 1.613281 22.023438 C 1.175781 22.023438 0.804688 22.003906 0.4375 21.742188 C 0.121094 21.417969 -0.0078125 21.148438 -0.0234375 20.6875 C -0.0078125 20.289062 0.0898438 19.960938 0.386719 19.679688 C 0.566406 19.558594 0.742188 19.445312 0.945312 19.378906 C 0.9375 19.351562 0.929688 19.324219 0.921875 19.296875 C 0.910156 19.261719 0.898438 19.222656 0.886719 19.1875 C 0.875 19.148438 0.863281 19.113281 0.851562 19.078125 C 0.839844 19.035156 0.828125 18.992188 0.816406 18.949219 C 0.800781 18.898438 0.785156 18.847656 0.769531 18.796875 C 0.582031 18.027344 0.707031 17.101562 1.078125 16.410156 C 1.257812 16.136719 1.492188 15.902344 1.730469 15.679688 C 2.164062 15.269531 2.332031 14.796875 2.449219 14.222656 C 2.472656 14.105469 2.5 13.984375 2.523438 13.867188 C 2.542969 13.785156 2.558594 13.699219 2.578125 13.617188 C 2.621094 13.398438 2.675781 13.195312 2.75 12.984375 C 2.910156 12.59375 2.910156 12.59375 2.859375 12.199219 C 2.761719 12.089844 2.761719 12.089844 2.648438 12 C 2.359375 11.75 2.21875 11.320312 2.183594 10.949219 C 2.144531 10.238281 2.277344 9.667969 2.734375 9.109375 C 3.105469 8.710938 3.660156 8.445312 4.199219 8.410156 C 4.8125 8.394531 5.359375 8.515625 5.835938 8.917969 C 5.945312 9.007812 6.019531 9.070312 6.164062 9.058594 C 6.261719 9.039062 6.351562 9.015625 6.445312 8.980469 C 6.421875 8.945312 6.421875 8.945312 6.398438 8.90625 C 6.257812 8.675781 6.1875 8.523438 6.230469 8.25 C 6.3125 8.144531 6.371094 8.09375 6.488281 8.035156 C 6.894531 7.992188 7.292969 8.085938 7.691406 8.164062 C 7.691406 8.125 7.6875 8.085938 7.6875 8.042969 C 7.691406 7.90625 7.691406 7.90625 7.777344 7.78125 C 7.9375 7.667969 8.0625 7.671875 8.25 7.691406 Z M 8.25 7.691406 "/>
<path style=" stroke:none;fill-rule:nonzero;fill:rgb(95.686275%,95.686275%,95.686275%);fill-opacity:1;" d="M 8.421875 8.59375 C 8.917969 8.667969 9.433594 9.089844 9.746094 9.46875 C 9.917969 9.644531 10.164062 9.65625 10.398438 9.695312 C 11.894531 9.957031 13.390625 10.59375 14.308594 11.859375 C 15.167969 13.105469 15.394531 14.578125 15.394531 16.058594 C 15.394531 16.117188 15.394531 16.117188 15.398438 16.171875 C 15.398438 17.328125 15.398438 17.328125 15.167969 17.617188 C 15.039062 17.644531 14.9375 17.660156 14.8125 17.664062 C 14.195312 17.707031 13.699219 17.941406 13.175781 18.265625 C 12.15625 18.894531 11.082031 19.265625 9.890625 19.417969 C 9.5625 19.472656 9.296875 19.628906 9.089844 19.890625 C 9.050781 19.949219 9.015625 20.007812 8.980469 20.066406 C 8.941406 20.132812 8.941406 20.132812 8.898438 20.199219 C 8.78125 20.5 8.828125 20.878906 8.894531 21.183594 C 8.386719 21.261719 7.894531 21.285156 7.382812 21.28125 C 7.347656 21.28125 7.308594 21.28125 7.269531 21.28125 C 6.71875 21.277344 6.175781 21.265625 5.628906 21.183594 C 5.589844 21.179688 5.554688 21.171875 5.515625 21.167969 C 4.171875 20.964844 2.742188 20.523438 1.890625 19.390625 C 1.714844 19.132812 1.59375 18.863281 1.503906 18.5625 C 1.496094 18.535156 1.488281 18.507812 1.480469 18.480469 C 1.363281 17.902344 1.492188 17.21875 1.78125 16.714844 C 1.847656 16.628906 1.847656 16.628906 1.976562 16.542969 C 2 16.574219 2 16.574219 2.023438 16.605469 C 2.394531 17.066406 2.941406 17.40625 3.523438 17.53125 C 4.3125 17.601562 4.984375 17.5 5.628906 17.015625 C 5.664062 16.988281 5.699219 16.960938 5.738281 16.933594 C 6.144531 16.585938 6.441406 16.042969 6.53125 15.511719 C 6.597656 14.648438 6.488281 14 5.929688 13.320312 C 5.453125 12.800781 4.832031 12.550781 4.144531 12.496094 C 4.105469 12.492188 4.066406 12.488281 4.023438 12.484375 C 3.929688 12.476562 3.832031 12.46875 3.738281 12.460938 C 3.847656 11.675781 4.539062 10.859375 5.144531 10.382812 C 5.652344 10.011719 6.230469 9.757812 6.851562 9.644531 C 6.984375 9.617188 7.082031 9.585938 7.195312 9.507812 C 7.285156 9.375 7.277344 9.28125 7.273438 9.121094 C 7.269531 9.070312 7.269531 9.019531 7.269531 8.96875 C 7.265625 8.929688 7.265625 8.890625 7.261719 8.851562 C 7.660156 8.960938 7.660156 8.960938 7.808594 9.054688 C 7.949219 9.132812 8.046875 9.128906 8.207031 9.109375 C 8.316406 9.050781 8.316406 9.050781 8.378906 8.9375 C 8.40625 8.820312 8.414062 8.714844 8.421875 8.59375 Z M 8.421875 8.59375 "/>
<path style=" stroke:none;fill-rule:nonzero;fill:rgb(0%,0.392157%,0.392157%);fill-opacity:1;" d="M 10.527344 2.183594 C 10.5625 2.183594 10.597656 2.183594 10.636719 2.183594 C 10.671875 2.183594 10.710938 2.183594 10.75 2.183594 C 10.792969 2.183594 10.832031 2.183594 10.875 2.183594 C 11.007812 2.183594 11.144531 2.183594 11.277344 2.183594 C 11.371094 2.183594 11.464844 2.183594 11.558594 2.183594 C 11.753906 2.179688 11.949219 2.179688 12.144531 2.179688 C 12.394531 2.179688 12.648438 2.179688 12.898438 2.179688 C 13.089844 2.179688 13.285156 2.175781 13.476562 2.175781 C 13.570312 2.175781 13.660156 2.175781 13.753906 2.175781 C 13.882812 2.175781 14.011719 2.175781 14.144531 2.175781 C 14.179688 2.175781 14.21875 2.175781 14.257812 2.175781 C 14.546875 2.175781 14.769531 2.238281 15.023438 2.386719 C 15.261719 2.632812 15.425781 2.925781 15.4375 3.269531 C 15.433594 3.574219 15.34375 3.878906 15.128906 4.101562 C 14.90625 4.304688 14.664062 4.484375 14.425781 4.667969 C 14.316406 4.753906 14.207031 4.839844 14.097656 4.929688 C 14.066406 4.957031 14.03125 4.984375 13.996094 5.011719 C 13.96875 5.03125 13.945312 5.050781 13.921875 5.070312 C 13.960938 5.070312 14 5.074219 14.039062 5.074219 C 14.449219 5.09375 14.804688 5.136719 15.121094 5.417969 C 15.351562 5.679688 15.457031 5.992188 15.441406 6.335938 C 15.394531 6.648438 15.269531 6.886719 15.050781 7.109375 C 14.761719 7.308594 14.492188 7.375 14.144531 7.371094 C 14.101562 7.371094 14.0625 7.371094 14.019531 7.371094 C 13.886719 7.371094 13.753906 7.371094 13.621094 7.371094 C 13.53125 7.371094 13.4375 7.371094 13.34375 7.371094 C 13.148438 7.375 12.957031 7.375 12.761719 7.371094 C 12.515625 7.371094 12.265625 7.371094 12.019531 7.375 C 11.828125 7.375 11.632812 7.375 11.441406 7.375 C 11.351562 7.375 11.261719 7.375 11.167969 7.375 C 10.167969 7.382812 10.167969 7.382812 9.757812 6.972656 C 9.550781 6.714844 9.480469 6.445312 9.496094 6.121094 C 9.589844 5.441406 10.214844 5.082031 10.71875 4.691406 C 10.8125 4.621094 10.90625 4.542969 11 4.46875 C 10.964844 4.46875 10.929688 4.464844 10.890625 4.464844 C 10.449219 4.4375 10.113281 4.394531 9.785156 4.078125 C 9.550781 3.816406 9.484375 3.527344 9.496094 3.179688 C 9.542969 2.855469 9.679688 2.625 9.925781 2.40625 C 10.113281 2.273438 10.296875 2.1875 10.527344 2.183594 Z M 10.527344 2.183594 "/>
<path style=" stroke:none;fill-rule:nonzero;fill:rgb(0%,0.392157%,0.392157%);fill-opacity:1;" d="M 17.363281 -0.0234375 C 17.402344 -0.0234375 17.445312 -0.0234375 17.488281 -0.0234375 C 17.625 -0.0234375 17.757812 -0.0234375 17.894531 -0.0234375 C 17.992188 -0.0234375 18.085938 -0.0234375 18.179688 -0.0234375 C 18.378906 -0.0234375 18.578125 -0.0234375 18.777344 -0.0234375 C 19.03125 -0.0195312 19.285156 -0.0234375 19.539062 -0.0234375 C 19.734375 -0.0234375 19.929688 -0.0234375 20.125 -0.0234375 C 20.21875 -0.0234375 20.3125 -0.0234375 20.40625 -0.0234375 C 20.539062 -0.0234375 20.667969 -0.0234375 20.800781 -0.0234375 C 20.835938 -0.0234375 20.875 -0.0234375 20.914062 -0.0234375 C 21.238281 -0.0195312 21.503906 0.078125 21.734375 0.3125 C 22.007812 0.609375 22.023438 0.867188 22.015625 1.261719 C 21.984375 1.582031 21.847656 1.765625 21.613281 1.976562 C 21.585938 2 21.5625 2.023438 21.535156 2.050781 C 21.210938 2.347656 20.863281 2.632812 20.496094 2.878906 C 20.539062 2.878906 20.585938 2.878906 20.632812 2.878906 C 21.046875 2.890625 21.386719 2.925781 21.703125 3.21875 C 21.976562 3.515625 22.027344 3.777344 22.015625 4.175781 C 21.984375 4.480469 21.867188 4.707031 21.644531 4.917969 C 21.355469 5.132812 21.039062 5.175781 20.6875 5.171875 C 20.648438 5.175781 20.609375 5.175781 20.566406 5.175781 C 20.4375 5.175781 20.308594 5.175781 20.183594 5.175781 C 20.09375 5.175781 20.003906 5.175781 19.914062 5.175781 C 19.722656 5.175781 19.535156 5.175781 19.347656 5.175781 C 19.109375 5.175781 18.867188 5.175781 18.628906 5.175781 C 18.441406 5.179688 18.257812 5.179688 18.070312 5.175781 C 17.980469 5.175781 17.894531 5.179688 17.804688 5.179688 C 16.808594 5.183594 16.808594 5.183594 16.417969 4.851562 C 16.183594 4.585938 16.082031 4.277344 16.097656 3.925781 C 16.152344 3.546875 16.359375 3.238281 16.660156 3.007812 C 16.6875 2.988281 16.710938 2.96875 16.738281 2.953125 C 16.761719 2.933594 16.789062 2.910156 16.816406 2.890625 C 16.867188 2.851562 16.921875 2.808594 16.976562 2.769531 C 17.085938 2.6875 17.191406 2.605469 17.300781 2.519531 C 17.40625 2.4375 17.511719 2.359375 17.617188 2.277344 C 17.570312 2.273438 17.519531 2.269531 17.46875 2.265625 C 16.695312 2.191406 16.695312 2.191406 16.378906 1.859375 C 16.15625 1.582031 16.085938 1.328125 16.097656 0.976562 C 16.140625 0.660156 16.304688 0.382812 16.542969 0.171875 C 16.808594 0.0117188 17.054688 -0.0234375 17.363281 -0.0234375 Z M 17.363281 -0.0234375 "/>
<path style=" stroke:none;fill-rule:nonzero;fill:rgb(21.176471%,27.450982%,30.588236%);fill-opacity:1;" d="M 11.785156 13.675781 C 12.335938 14.109375 12.742188 14.714844 12.847656 15.425781 C 12.902344 16.207031 12.679688 16.941406 12.167969 17.535156 C 11.660156 18.050781 10.960938 18.339844 10.238281 18.363281 C 9.515625 18.351562 8.886719 18.035156 8.378906 17.53125 C 7.878906 16.988281 7.671875 16.289062 7.675781 15.558594 C 7.71875 14.847656 8.117188 14.230469 8.632812 13.761719 C 9.558594 13.023438 10.828125 12.984375 11.785156 13.675781 Z M 11.785156 13.675781 "/>
<path style=" stroke:none;fill-rule:nonzero;fill:rgb(37.254903%,48.627451%,54.11765%);fill-opacity:1;" d="M 16.070312 14.652344 C 16.171875 14.664062 16.273438 14.679688 16.375 14.691406 C 16.417969 14.695312 16.417969 14.695312 16.460938 14.703125 C 17.800781 14.878906 19.164062 15.40625 20.019531 16.5 C 20.464844 17.136719 20.863281 17.898438 20.839844 18.691406 C 20.808594 18.691406 20.773438 18.695312 20.742188 18.695312 C 20.589844 18.703125 20.441406 18.710938 20.292969 18.71875 C 20.214844 18.722656 20.214844 18.722656 20.136719 18.722656 C 19.6875 18.75 19.246094 18.890625 18.933594 19.234375 C 18.484375 19.875 18.390625 20.476562 18.390625 21.269531 C 17.824219 21.269531 17.257812 21.269531 16.671875 21.269531 C 16.785156 21.070312 16.898438 20.871094 17.015625 20.667969 C 17.28125 20.015625 17.277344 19.269531 17.011719 18.617188 C 16.824219 18.210938 16.601562 17.984375 16.199219 17.789062 C 16.113281 17.746094 16.027344 17.703125 15.941406 17.660156 C 15.949219 17.621094 15.960938 17.582031 15.96875 17.542969 C 16.097656 16.945312 16.085938 16.351562 16.078125 15.746094 C 16.078125 15.640625 16.078125 15.53125 16.078125 15.425781 C 16.074219 15.167969 16.074219 14.910156 16.070312 14.652344 Z M 16.070312 14.652344 "/>
<path style=" stroke:none;fill-rule:nonzero;fill:rgb(49.411765%,55.29412%,57.647061%);fill-opacity:1;" d="M 15.21875 18.324219 C 15.289062 18.320312 15.289062 18.320312 15.363281 18.320312 C 15.675781 18.320312 15.90625 18.367188 16.15625 18.5625 C 16.246094 18.664062 16.246094 18.664062 16.304688 18.769531 C 16.324219 18.804688 16.34375 18.835938 16.363281 18.871094 C 16.554688 19.324219 16.589844 19.886719 16.410156 20.347656 C 16.222656 20.734375 15.949219 21.03125 15.539062 21.175781 C 15.234375 21.265625 14.957031 21.289062 14.640625 21.285156 C 14.566406 21.289062 14.566406 21.289062 14.488281 21.289062 C 14.324219 21.289062 14.160156 21.289062 13.996094 21.289062 C 13.910156 21.289062 13.824219 21.289062 13.738281 21.289062 C 13.46875 21.289062 13.199219 21.289062 12.925781 21.289062 C 12.648438 21.289062 12.371094 21.289062 12.09375 21.289062 C 11.855469 21.289062 11.617188 21.292969 11.375 21.289062 C 11.234375 21.289062 11.089844 21.289062 10.949219 21.292969 C 10.789062 21.292969 10.632812 21.292969 10.472656 21.292969 C 10.425781 21.292969 10.378906 21.292969 10.332031 21.292969 C 10.058594 21.289062 9.890625 21.261719 9.667969 21.097656 C 9.550781 20.929688 9.515625 20.78125 9.523438 20.582031 C 9.558594 20.394531 9.660156 20.273438 9.808594 20.167969 C 9.9375 20.105469 10.035156 20.082031 10.179688 20.0625 C 10.226562 20.054688 10.277344 20.050781 10.328125 20.042969 C 10.382812 20.035156 10.433594 20.027344 10.488281 20.019531 C 11.378906 19.875 12.230469 19.605469 13.019531 19.164062 C 13.078125 19.132812 13.140625 19.097656 13.199219 19.066406 C 13.449219 18.929688 13.691406 18.789062 13.933594 18.636719 C 14.339844 18.390625 14.746094 18.320312 15.21875 18.324219 Z M 15.21875 18.324219 "/>
<path style=" stroke:none;fill-rule:nonzero;fill:rgb(1.176471%,1.176471%,1.176471%);fill-opacity:1;" d="M 11.785156 13.675781 C 12.335938 14.109375 12.742188 14.714844 12.847656 15.425781 C 12.902344 16.207031 12.679688 16.941406 12.167969 17.535156 C 11.660156 18.050781 10.960938 18.339844 10.238281 18.363281 C 9.515625 18.351562 8.886719 18.035156 8.378906 17.53125 C 7.878906 16.988281 7.671875 16.289062 7.675781 15.558594 C 7.71875 14.847656 8.117188 14.230469 8.632812 13.761719 C 9.558594 13.023438 10.828125 12.984375 11.785156 13.675781 Z M 8.878906 14.535156 C 8.5625 14.917969 8.398438 15.347656 8.410156 15.84375 C 8.460938 16.398438 8.707031 16.886719 9.132812 17.242188 C 9.621094 17.59375 10.113281 17.625 10.699219 17.574219 C 11.164062 17.46875 11.550781 17.175781 11.8125 16.78125 C 12.015625 16.449219 12.097656 16.160156 12.09375 15.773438 C 12.09375 15.738281 12.09375 15.699219 12.09375 15.660156 C 12.085938 15.378906 12.046875 15.152344 11.902344 14.910156 C 11.882812 14.875 11.863281 14.84375 11.84375 14.808594 C 11.566406 14.347656 11.164062 14.101562 10.652344 13.953125 C 9.972656 13.832031 9.355469 14.03125 8.878906 14.535156 Z M 8.878906 14.535156 "/>
<path style=" stroke:none;fill-rule:nonzero;fill:rgb(0.392157%,65.098041%,93.725491%);fill-opacity:1;" d="M 10.910156 2.894531 C 10.964844 2.894531 10.964844 2.894531 11.023438 2.894531 C 11.144531 2.894531 11.269531 2.898438 11.390625 2.898438 C 11.476562 2.898438 11.5625 2.898438 11.648438 2.898438 C 11.828125 2.898438 12.011719 2.898438 12.191406 2.902344 C 12.421875 2.902344 12.652344 2.902344 12.882812 2.902344 C 13.058594 2.902344 13.234375 2.90625 13.414062 2.90625 C 13.496094 2.90625 13.582031 2.90625 13.667969 2.90625 C 13.785156 2.90625 13.90625 2.90625 14.023438 2.910156 C 14.078125 2.910156 14.078125 2.910156 14.128906 2.910156 C 14.4375 2.914062 14.4375 2.914062 14.566406 3.007812 C 14.675781 3.167969 14.675781 3.246094 14.652344 3.4375 C 14.511719 3.628906 14.355469 3.769531 14.167969 3.914062 C 14.113281 3.953125 14.058594 3.996094 14.003906 4.035156 C 13.976562 4.058594 13.949219 4.078125 13.921875 4.101562 C 13.777344 4.214844 13.632812 4.332031 13.492188 4.445312 C 13.242188 4.652344 12.992188 4.851562 12.738281 5.046875 C 12.488281 5.222656 12.488281 5.222656 12.398438 5.496094 C 12.386719 5.585938 12.386719 5.585938 12.417969 5.671875 C 12.542969 5.808594 12.640625 5.855469 12.824219 5.863281 C 12.898438 5.863281 12.976562 5.863281 13.050781 5.863281 C 13.09375 5.863281 13.132812 5.863281 13.175781 5.863281 C 13.300781 5.867188 13.429688 5.867188 13.558594 5.863281 C 13.730469 5.863281 13.898438 5.867188 14.066406 5.867188 C 14.105469 5.867188 14.144531 5.867188 14.183594 5.863281 C 14.453125 5.867188 14.453125 5.867188 14.589844 5.964844 C 14.664062 6.078125 14.675781 6.175781 14.683594 6.3125 C 14.632812 6.457031 14.523438 6.542969 14.394531 6.617188 C 14.265625 6.648438 14.144531 6.644531 14.015625 6.644531 C 13.976562 6.644531 13.9375 6.644531 13.898438 6.644531 C 13.777344 6.644531 13.652344 6.644531 13.53125 6.644531 C 13.445312 6.644531 13.359375 6.644531 13.273438 6.644531 C 13.09375 6.644531 12.914062 6.644531 12.734375 6.644531 C 12.503906 6.640625 12.273438 6.640625 12.042969 6.640625 C 11.867188 6.644531 11.691406 6.640625 11.511719 6.640625 C 11.429688 6.640625 11.34375 6.640625 11.257812 6.640625 C 11.140625 6.640625 11.019531 6.640625 10.902344 6.640625 C 10.867188 6.640625 10.832031 6.640625 10.796875 6.640625 C 10.628906 6.636719 10.546875 6.628906 10.398438 6.535156 C 10.296875 6.429688 10.273438 6.386719 10.257812 6.238281 C 10.277344 6.019531 10.402344 5.917969 10.566406 5.78125 C 10.613281 5.746094 10.660156 5.707031 10.710938 5.671875 C 10.765625 5.628906 10.816406 5.589844 10.871094 5.546875 C 10.898438 5.523438 10.929688 5.503906 10.957031 5.480469 C 11.101562 5.367188 11.246094 5.25 11.386719 5.132812 C 11.609375 4.953125 11.835938 4.769531 12.0625 4.589844 C 12.101562 4.558594 12.101562 4.558594 12.136719 4.53125 C 12.234375 4.453125 12.320312 4.386719 12.433594 4.339844 C 12.511719 4.300781 12.511719 4.300781 12.535156 4.210938 C 12.5625 3.992188 12.5625 3.992188 12.46875 3.800781 C 12.339844 3.714844 12.269531 3.691406 12.117188 3.6875 C 12.082031 3.6875 12.046875 3.6875 12.007812 3.6875 C 11.949219 3.6875 11.949219 3.6875 11.890625 3.6875 C 11.8125 3.683594 11.730469 3.683594 11.648438 3.683594 C 11.519531 3.679688 11.390625 3.679688 11.261719 3.679688 C 11.140625 3.675781 11.015625 3.675781 10.894531 3.671875 C 10.855469 3.671875 10.816406 3.671875 10.777344 3.671875 C 10.511719 3.667969 10.511719 3.667969 10.375 3.59375 C 10.296875 3.507812 10.28125 3.449219 10.265625 3.335938 C 10.257812 3.304688 10.253906 3.269531 10.246094 3.238281 C 10.277344 3.105469 10.34375 3.050781 10.445312 2.96875 C 10.59375 2.882812 10.742188 2.894531 10.910156 2.894531 Z M 10.910156 2.894531 "/>
<path style=" stroke:none;fill-rule:nonzero;fill:rgb(0.392157%,65.490198%,94.509804%);fill-opacity:1;" d="M 17.480469 0.703125 C 17.519531 0.703125 17.554688 0.703125 17.59375 0.703125 C 17.71875 0.699219 17.84375 0.703125 17.96875 0.703125 C 18.054688 0.703125 18.140625 0.703125 18.230469 0.703125 C 18.410156 0.699219 18.59375 0.703125 18.773438 0.703125 C 19.007812 0.703125 19.238281 0.703125 19.472656 0.703125 C 19.652344 0.699219 19.832031 0.699219 20.007812 0.703125 C 20.09375 0.703125 20.179688 0.703125 20.265625 0.703125 C 20.386719 0.699219 20.507812 0.703125 20.625 0.703125 C 20.679688 0.703125 20.679688 0.703125 20.734375 0.703125 C 20.910156 0.703125 21.023438 0.722656 21.164062 0.832031 C 21.269531 0.945312 21.269531 0.945312 21.292969 1.078125 C 21.246094 1.332031 21.121094 1.4375 20.921875 1.585938 C 20.867188 1.628906 20.8125 1.671875 20.757812 1.714844 C 20.726562 1.734375 20.699219 1.757812 20.667969 1.78125 C 20.523438 1.894531 20.382812 2.011719 20.238281 2.128906 C 19.992188 2.328125 19.746094 2.527344 19.496094 2.71875 C 19.425781 2.773438 19.359375 2.824219 19.292969 2.878906 C 19.269531 2.898438 19.246094 2.914062 19.21875 2.933594 C 19.089844 3.039062 19.039062 3.082031 18.992188 3.246094 C 18.992188 3.386719 18.996094 3.453125 19.078125 3.566406 C 19.175781 3.617188 19.230469 3.613281 19.339844 3.617188 C 19.394531 3.617188 19.394531 3.617188 19.449219 3.617188 C 19.488281 3.617188 19.527344 3.617188 19.570312 3.617188 C 19.652344 3.617188 19.734375 3.617188 19.816406 3.621094 C 19.949219 3.621094 20.078125 3.621094 20.210938 3.625 C 20.335938 3.625 20.464844 3.625 20.589844 3.628906 C 20.628906 3.628906 20.667969 3.628906 20.707031 3.628906 C 20.886719 3.632812 20.988281 3.636719 21.144531 3.734375 C 21.242188 3.839844 21.265625 3.886719 21.285156 4.03125 C 21.269531 4.167969 21.269531 4.167969 21.183594 4.28125 C 21.007812 4.417969 20.882812 4.414062 20.667969 4.410156 C 20.609375 4.410156 20.609375 4.410156 20.546875 4.410156 C 20.421875 4.410156 20.292969 4.410156 20.164062 4.410156 C 20.078125 4.410156 19.988281 4.410156 19.898438 4.410156 C 19.710938 4.410156 19.527344 4.410156 19.339844 4.410156 C 19.101562 4.40625 18.863281 4.40625 18.625 4.40625 C 18.441406 4.410156 18.257812 4.40625 18.074219 4.40625 C 17.984375 4.40625 17.898438 4.40625 17.808594 4.40625 C 17.6875 4.40625 17.5625 4.40625 17.441406 4.40625 C 17.40625 4.40625 17.367188 4.40625 17.332031 4.40625 C 17.167969 4.402344 17.085938 4.402344 16.949219 4.304688 C 16.875 4.191406 16.863281 4.09375 16.859375 3.957031 C 16.933594 3.710938 17.246094 3.527344 17.441406 3.367188 C 17.476562 3.339844 17.507812 3.316406 17.539062 3.289062 C 17.808594 3.066406 18.082031 2.851562 18.355469 2.640625 C 18.5 2.523438 18.644531 2.410156 18.789062 2.296875 C 18.820312 2.273438 18.847656 2.253906 18.875 2.230469 C 19.019531 2.121094 19.019531 2.121094 19.121094 1.976562 C 19.140625 1.773438 19.140625 1.773438 19.0625 1.59375 C 18.945312 1.515625 18.875 1.5 18.734375 1.5 C 18.699219 1.5 18.664062 1.5 18.625 1.496094 C 18.589844 1.496094 18.550781 1.496094 18.511719 1.496094 C 18.429688 1.496094 18.347656 1.496094 18.269531 1.496094 C 18.140625 1.492188 18.011719 1.492188 17.882812 1.492188 C 17.761719 1.492188 17.636719 1.492188 17.515625 1.488281 C 17.457031 1.492188 17.457031 1.492188 17.398438 1.492188 C 17.207031 1.488281 17.125 1.480469 16.96875 1.359375 C 16.886719 1.246094 16.886719 1.246094 16.859375 1.097656 C 16.925781 0.734375 17.167969 0.699219 17.480469 0.703125 Z M 17.480469 0.703125 "/>
<path style=" stroke:none;fill-rule:nonzero;fill:rgb(21.176471%,27.450982%,30.588236%);fill-opacity:1;" d="M 5.101562 13.523438 C 5.46875 13.789062 5.726562 14.171875 5.84375 14.609375 C 5.863281 14.75 5.867188 14.886719 5.867188 15.027344 C 5.863281 15.066406 5.863281 15.105469 5.863281 15.144531 C 5.851562 15.625 5.667969 16.027344 5.328125 16.371094 C 5.191406 16.484375 5.050781 16.582031 4.898438 16.671875 C 4.867188 16.691406 4.835938 16.710938 4.804688 16.730469 C 4.414062 16.925781 3.871094 16.90625 3.453125 16.804688 C 3.0625 16.652344 2.746094 16.402344 2.492188 16.070312 C 2.546875 15.925781 2.605469 15.808594 2.695312 15.683594 C 3.039062 15.167969 3.152344 14.671875 3.257812 14.066406 C 3.304688 13.800781 3.367188 13.539062 3.4375 13.277344 C 4.027344 13.148438 4.585938 13.195312 5.101562 13.523438 Z M 5.101562 13.523438 "/>
<path style=" stroke:none;fill-rule:nonzero;fill:rgb(80.000001%,83.529413%,85.09804%);fill-opacity:1;" d="M 11.601562 10.011719 C 12.933594 10.445312 14.03125 11.234375 14.691406 12.492188 C 14.925781 12.964844 15.082031 13.457031 15.203125 13.96875 C 15.210938 14.007812 15.21875 14.042969 15.226562 14.078125 C 15.363281 14.691406 15.398438 15.304688 15.394531 15.929688 C 15.394531 16.042969 15.394531 16.15625 15.394531 16.269531 C 15.394531 17.332031 15.394531 17.332031 15.167969 17.617188 C 15.039062 17.644531 14.945312 17.65625 14.816406 17.65625 C 14.769531 17.65625 14.769531 17.65625 14.71875 17.65625 C 14.640625 17.660156 14.558594 17.660156 14.480469 17.660156 C 14.503906 17.511719 14.53125 17.367188 14.566406 17.222656 C 14.609375 17.027344 14.625 16.839844 14.625 16.640625 C 14.625 16.589844 14.625 16.589844 14.625 16.535156 C 14.625 16.421875 14.625 16.308594 14.625 16.195312 C 14.625 16.15625 14.625 16.117188 14.625 16.078125 C 14.621094 14.195312 14.273438 12.386719 12.910156 11 C 12.546875 10.640625 12.09375 10.261719 11.601562 10.097656 C 11.601562 10.070312 11.601562 10.039062 11.601562 10.011719 Z M 11.601562 10.011719 "/>
<path style=" stroke:none;fill-rule:nonzero;fill:rgb(95.294118%,95.294118%,95.294118%);fill-opacity:1;" d="M 20.683594 13.472656 C 20.964844 13.707031 21.171875 13.996094 21.269531 14.351562 C 21.320312 14.875 21.210938 15.273438 20.882812 15.683594 C 20.699219 15.878906 20.699219 15.878906 20.582031 15.941406 C 20.425781 15.929688 20.40625 15.894531 20.300781 15.769531 C 20.277344 15.742188 20.253906 15.714844 20.234375 15.6875 C 19.742188 15.140625 19.042969 14.792969 18.390625 14.480469 C 18.371094 14.128906 18.503906 13.933594 18.71875 13.664062 C 19.25 13.085938 20.046875 13.042969 20.683594 13.472656 Z M 20.683594 13.472656 "/>
<path style=" stroke:none;fill-rule:nonzero;fill:rgb(92.54902%,18.82353%,29.411766%);fill-opacity:1;" d="M 15.035156 9.507812 C 15.433594 9.851562 15.734375 10.25 15.78125 10.789062 C 15.796875 11.277344 15.714844 11.742188 15.382812 12.117188 C 15.355469 12.117188 15.324219 12.117188 15.296875 12.117188 C 15.230469 12.015625 15.167969 11.914062 15.109375 11.8125 C 14.519531 10.835938 13.691406 10.226562 12.71875 9.667969 C 13.34375 9.015625 14.308594 8.96875 15.035156 9.507812 Z M 15.035156 9.507812 "/>
<path style=" stroke:none;fill-rule:nonzero;fill:rgb(49.019608%,54.901963%,57.254905%);fill-opacity:1;" d="M 20.429688 19.410156 C 20.476562 19.40625 20.527344 19.40625 20.578125 19.40625 C 20.625 19.40625 20.671875 19.40625 20.71875 19.40625 C 20.761719 19.40625 20.804688 19.40625 20.847656 19.40625 C 20.988281 19.425781 21.070312 19.464844 21.183594 19.550781 C 21.324219 19.757812 21.285156 20.003906 21.285156 20.246094 C 21.285156 20.339844 21.289062 20.433594 21.289062 20.527344 C 21.289062 20.585938 21.289062 20.644531 21.289062 20.703125 C 21.289062 20.757812 21.289062 20.8125 21.289062 20.867188 C 21.265625 21.039062 21.21875 21.105469 21.097656 21.226562 C 20.835938 21.3125 20.53125 21.28125 20.253906 21.285156 C 20.175781 21.285156 20.097656 21.285156 20.019531 21.289062 C 19.902344 21.289062 19.789062 21.292969 19.675781 21.292969 C 19.640625 21.292969 19.605469 21.292969 19.570312 21.296875 C 19.382812 21.292969 19.3125 21.285156 19.164062 21.167969 C 19.050781 21.019531 19.050781 20.953125 19.0625 20.777344 C 19.128906 20.296875 19.261719 19.875 19.648438 19.558594 C 19.898438 19.386719 20.132812 19.40625 20.429688 19.410156 Z M 20.429688 19.410156 "/>
<path style=" stroke:none;fill-rule:nonzero;fill:rgb(80.784315%,83.92157%,85.490197%);fill-opacity:1;" d="M 8.894531 13.621094 C 8.871094 13.636719 8.847656 13.65625 8.820312 13.671875 C 8.257812 14.09375 7.839844 14.671875 7.734375 15.382812 C 7.679688 16.210938 7.878906 16.894531 8.421875 17.53125 C 8.507812 17.617188 8.597656 17.695312 8.691406 17.769531 C 8.761719 17.828125 8.828125 17.894531 8.894531 17.960938 C 8.363281 17.925781 7.867188 17.636719 7.503906 17.253906 C 7.066406 16.722656 6.910156 16.152344 6.953125 15.46875 C 7.007812 14.953125 7.316406 14.441406 7.691406 14.09375 C 7.992188 13.855469 8.488281 13.476562 8.894531 13.621094 Z M 8.894531 13.621094 "/>
<path style=" stroke:none;fill-rule:nonzero;fill:rgb(91.764706%,18.431373%,29.019609%);fill-opacity:1;" d="M 5.160156 9.347656 C 5.203125 9.378906 5.203125 9.378906 5.242188 9.410156 C 5.242188 9.4375 5.242188 9.46875 5.242188 9.496094 C 5.167969 9.546875 5.09375 9.597656 5.015625 9.644531 C 4.269531 10.128906 3.761719 10.800781 3.308594 11.558594 C 3.046875 11.347656 2.949219 11.070312 2.902344 10.742188 C 2.882812 10.320312 3.027344 9.960938 3.289062 9.628906 C 3.804688 9.09375 4.519531 9.027344 5.160156 9.347656 Z M 5.160156 9.347656 "/>
<path style=" stroke:none;fill-rule:nonzero;fill:rgb(21.176471%,27.450982%,30.588236%);fill-opacity:1;" d="M 17.617188 14.996094 C 18.359375 15.09375 19.070312 15.550781 19.59375 16.070312 C 19.632812 16.105469 19.671875 16.144531 19.710938 16.179688 C 19.742188 16.214844 19.773438 16.25 19.808594 16.285156 C 19.832031 16.308594 19.851562 16.332031 19.875 16.351562 C 20.445312 16.957031 20.839844 17.863281 20.839844 18.691406 C 20.515625 18.707031 20.1875 18.71875 19.851562 18.734375 C 19.851562 18.71875 19.851562 18.707031 19.851562 18.691406 C 19.9375 18.691406 20.023438 18.691406 20.109375 18.691406 C 19.9375 17.484375 19.453125 16.328125 18.457031 15.570312 C 18.191406 15.371094 17.914062 15.1875 17.617188 15.039062 C 17.617188 15.023438 17.617188 15.011719 17.617188 14.996094 Z M 17.617188 14.996094 "/>
<path style=" stroke:none;fill-rule:nonzero;fill:rgb(32.549021%,35.686275%,37.254903%);fill-opacity:1;" d="M 15.339844 18.347656 C 15.617188 18.320312 15.828125 18.339844 16.070312 18.488281 C 16.34375 18.722656 16.46875 19.070312 16.511719 19.421875 C 16.542969 19.9375 16.476562 20.363281 16.144531 20.773438 C 15.871094 21.054688 15.558594 21.207031 15.167969 21.269531 C 15.125 21.253906 15.082031 21.242188 15.039062 21.226562 C 15.0625 21.207031 15.082031 21.1875 15.105469 21.167969 C 15.464844 20.835938 15.714844 20.382812 15.742188 19.886719 C 15.753906 19.3125 15.648438 18.839844 15.339844 18.347656 Z M 15.339844 18.347656 "/>
<path style=" stroke:none;fill-rule:nonzero;fill:rgb(71.764708%,9.411765%,22.352941%);fill-opacity:1;" d="M 13.664062 9.152344 C 14.210938 9.113281 14.703125 9.222656 15.125 9.585938 C 15.53125 9.976562 15.765625 10.367188 15.785156 10.941406 C 15.777344 11.375 15.675781 11.785156 15.382812 12.117188 C 15.355469 12.117188 15.324219 12.117188 15.296875 12.117188 C 15.222656 12.023438 15.15625 11.925781 15.09375 11.828125 C 15.074219 11.800781 15.054688 11.773438 15.035156 11.746094 C 14.984375 11.664062 14.984375 11.664062 14.910156 11.515625 C 14.941406 11.429688 14.941406 11.429688 14.996094 11.34375 C 15.050781 10.765625 14.949219 10.1875 14.589844 9.714844 C 14.539062 9.65625 14.488281 9.597656 14.4375 9.539062 C 14.4375 9.511719 14.4375 9.480469 14.4375 9.453125 C 14.410156 9.441406 14.386719 9.429688 14.359375 9.417969 C 14.265625 9.367188 14.265625 9.367188 14.210938 9.300781 C 14.109375 9.214844 14.027344 9.214844 13.890625 9.207031 C 13.851562 9.207031 13.808594 9.203125 13.761719 9.199219 C 13.730469 9.199219 13.699219 9.195312 13.664062 9.195312 C 13.664062 9.179688 13.664062 9.167969 13.664062 9.152344 Z M 13.664062 9.152344 "/>
<path style=" stroke:none;fill-rule:nonzero;fill:rgb(79.215688%,82.745099%,84.313726%);fill-opacity:1;" d="M 19.550781 13.191406 C 20.019531 13.152344 20.402344 13.246094 20.769531 13.546875 C 21.039062 13.800781 21.246094 14.109375 21.28125 14.484375 C 21.285156 15.003906 21.164062 15.382812 20.804688 15.765625 C 20.664062 15.898438 20.664062 15.898438 20.582031 15.941406 C 20.441406 15.925781 20.40625 15.894531 20.300781 15.796875 C 20.238281 15.640625 20.238281 15.640625 20.273438 15.523438 C 20.3125 15.441406 20.351562 15.359375 20.394531 15.277344 C 20.554688 14.96875 20.539062 14.558594 20.46875 14.222656 C 20.355469 13.882812 20.164062 13.46875 19.851562 13.277344 C 19.695312 13.246094 19.695312 13.246094 19.550781 13.234375 C 19.550781 13.21875 19.550781 13.207031 19.550781 13.191406 Z M 19.550781 13.191406 "/>
<path style=" stroke:none;fill-rule:nonzero;fill:rgb(48.627451%,54.509807%,56.862748%);fill-opacity:1;" d="M 1.4375 20.046875 C 1.585938 20.074219 1.628906 20.160156 1.71875 20.273438 C 2.046875 20.636719 2.488281 20.878906 2.910156 21.105469 C 3.050781 21.183594 3.050781 21.183594 3.136719 21.269531 C 2.859375 21.273438 2.582031 21.277344 2.304688 21.277344 C 2.210938 21.28125 2.117188 21.28125 2.023438 21.28125 C 1.886719 21.285156 1.753906 21.285156 1.617188 21.285156 C 1.574219 21.289062 1.535156 21.289062 1.492188 21.289062 C 1.242188 21.289062 1.097656 21.265625 0.902344 21.097656 C 0.757812 20.929688 0.703125 20.800781 0.714844 20.582031 C 0.75 20.390625 0.855469 20.273438 1.007812 20.160156 C 1.152344 20.09375 1.285156 20.078125 1.4375 20.046875 Z M 1.4375 20.046875 "/>
<path style=" stroke:none;fill-rule:nonzero;fill:rgb(21.176471%,27.450982%,30.588236%);fill-opacity:1;" d="M 19.078125 19.078125 C 19.054688 19.105469 19.054688 19.105469 19.03125 19.132812 C 18.511719 19.78125 18.371094 20.457031 18.390625 21.269531 C 18.164062 21.269531 17.9375 21.269531 17.703125 21.269531 C 17.542969 20.949219 17.589844 20.59375 17.6875 20.253906 C 17.832031 19.835938 18.007812 19.453125 18.390625 19.207031 C 18.621094 19.097656 18.828125 19.0625 19.078125 19.078125 Z M 19.078125 19.078125 "/>
<path style=" stroke:none;fill-rule:nonzero;fill:rgb(2.745098%,2.745098%,2.745098%);fill-opacity:1;" d="M 6.058594 17.273438 C 6.085938 17.304688 6.117188 17.332031 6.148438 17.363281 C 6.226562 17.460938 6.226562 17.460938 6.347656 17.445312 C 6.464844 17.410156 6.554688 17.371094 6.660156 17.3125 C 6.8125 17.234375 6.917969 17.199219 7.089844 17.230469 C 7.25 17.320312 7.296875 17.375 7.351562 17.550781 C 7.347656 17.742188 7.308594 17.78125 7.175781 17.917969 C 7.066406 17.988281 6.949219 18.042969 6.828125 18.097656 C 6.769531 18.128906 6.707031 18.15625 6.644531 18.1875 C 6.617188 18.199219 6.589844 18.210938 6.5625 18.222656 C 6.476562 18.265625 6.476562 18.265625 6.359375 18.347656 C 6.097656 18.351562 5.972656 18.253906 5.792969 18.082031 C 5.605469 17.890625 5.5 17.769531 5.5 17.488281 C 5.660156 17.234375 5.769531 17.207031 6.058594 17.273438 Z M 6.058594 17.273438 "/>
<path style=" stroke:none;fill-rule:nonzero;fill:rgb(32.156864%,35.294119%,36.862746%);fill-opacity:1;" d="M 19.894531 19.421875 C 20.070312 19.417969 20.242188 19.414062 20.417969 19.414062 C 20.492188 19.414062 20.492188 19.414062 20.566406 19.410156 C 20.640625 19.410156 20.640625 19.410156 20.710938 19.410156 C 20.757812 19.410156 20.800781 19.40625 20.847656 19.40625 C 20.988281 19.425781 21.066406 19.464844 21.183594 19.550781 C 21.324219 19.757812 21.285156 20.003906 21.285156 20.246094 C 21.285156 20.339844 21.289062 20.433594 21.289062 20.527344 C 21.289062 20.585938 21.289062 20.644531 21.289062 20.703125 C 21.289062 20.757812 21.289062 20.8125 21.289062 20.867188 C 21.265625 21.039062 21.21875 21.105469 21.097656 21.226562 C 20.957031 21.273438 20.851562 21.273438 20.703125 21.273438 C 20.632812 21.273438 20.632812 21.273438 20.5625 21.269531 C 20.527344 21.269531 20.488281 21.269531 20.453125 21.269531 C 20.460938 21.25 20.46875 21.226562 20.472656 21.203125 C 20.503906 21.054688 20.503906 20.90625 20.5 20.753906 C 20.5 20.722656 20.5 20.6875 20.5 20.65625 C 20.503906 20.585938 20.5 20.515625 20.5 20.445312 C 20.5 20.339844 20.5 20.234375 20.503906 20.128906 C 20.5 20.058594 20.5 19.992188 20.5 19.925781 C 20.5 19.878906 20.5 19.878906 20.503906 19.828125 C 20.503906 19.664062 20.503906 19.664062 20.453125 19.507812 C 20.320312 19.488281 20.320312 19.488281 20.171875 19.480469 C 20.121094 19.476562 20.066406 19.472656 20.015625 19.472656 C 19.957031 19.46875 19.957031 19.46875 19.894531 19.464844 C 19.894531 19.449219 19.894531 19.4375 19.894531 19.421875 Z M 19.894531 19.421875 "/>
<path style=" stroke:none;fill-rule:nonzero;fill:rgb(80.392158%,83.92157%,85.490197%);fill-opacity:1;" d="M 9.238281 19.722656 C 9.222656 19.742188 9.203125 19.765625 9.1875 19.789062 C 8.875 20.1875 8.820312 20.460938 8.851562 20.96875 C 8.863281 21.039062 8.878906 21.113281 8.894531 21.183594 C 8.664062 21.230469 8.441406 21.230469 8.207031 21.226562 C 8.082031 20.953125 8.03125 20.710938 8.078125 20.410156 C 8.128906 20.277344 8.199219 20.175781 8.292969 20.066406 C 8.3125 20.042969 8.335938 20.019531 8.355469 19.992188 C 8.574219 19.777344 8.9375 19.621094 9.238281 19.722656 Z M 9.238281 19.722656 "/>
<path style=" stroke:none;fill-rule:nonzero;fill:rgb(0.392157%,0.392157%,0.392157%);fill-opacity:1;" d="M 4.382812 15.007812 C 4.429688 15.007812 4.476562 15.007812 4.523438 15.007812 C 4.859375 15.011719 4.859375 15.011719 5.035156 15.140625 C 5.140625 15.292969 5.144531 15.375 5.113281 15.554688 C 5.035156 15.671875 5.035156 15.671875 4.898438 15.769531 C 4.734375 15.800781 4.570312 15.796875 4.40625 15.792969 C 4.359375 15.792969 4.316406 15.792969 4.269531 15.796875 C 4.074219 15.792969 3.945312 15.789062 3.773438 15.691406 C 3.660156 15.558594 3.644531 15.472656 3.652344 15.296875 C 3.828125 14.980469 4.042969 15 4.382812 15.007812 Z M 4.382812 15.007812 "/>
<path style=" stroke:none;fill-rule:nonzero;fill:rgb(0.392157%,0.392157%,0.392157%);fill-opacity:1;" d="M 9.894531 15.367188 C 9.933594 15.363281 9.972656 15.363281 10.015625 15.363281 C 10.210938 15.359375 10.355469 15.359375 10.511719 15.480469 C 10.648438 15.636719 10.648438 15.636719 10.640625 15.773438 C 10.609375 15.960938 10.589844 16 10.441406 16.113281 C 10.324219 16.136719 10.324219 16.136719 10.195312 16.136719 C 10.148438 16.136719 10.101562 16.136719 10.054688 16.136719 C 10.003906 16.136719 9.953125 16.136719 9.90625 16.132812 C 9.832031 16.136719 9.832031 16.136719 9.753906 16.136719 C 9.707031 16.136719 9.660156 16.136719 9.613281 16.136719 C 9.546875 16.136719 9.546875 16.136719 9.484375 16.136719 C 9.335938 16.109375 9.285156 16.054688 9.195312 15.941406 C 9.164062 15.824219 9.171875 15.714844 9.195312 15.597656 C 9.390625 15.34375 9.597656 15.371094 9.894531 15.367188 Z M 9.894531 15.367188 "/>
<path style=" stroke:none;fill-rule:nonzero;fill:rgb(32.156864%,35.294119%,36.862746%);fill-opacity:1;" d="M 1.4375 20.046875 C 1.585938 20.074219 1.628906 20.15625 1.71875 20.273438 C 2.058594 20.648438 2.523438 20.902344 2.964844 21.140625 C 2.785156 21.199219 2.671875 21.128906 2.503906 21.058594 C 2.472656 21.046875 2.441406 21.03125 2.40625 21.019531 C 1.914062 20.804688 1.441406 20.546875 1.03125 20.195312 C 1.152344 20.074219 1.273438 20.078125 1.4375 20.046875 Z M 1.4375 20.046875 "/>
<path style=" stroke:none;fill-rule:nonzero;fill:rgb(78.823531%,81.960785%,83.529413%);fill-opacity:1;" d="M 8.421875 8.59375 C 8.882812 8.660156 9.292969 9.019531 9.625 9.324219 C 9.640625 9.351562 9.652344 9.382812 9.667969 9.410156 C 9.003906 9.390625 9.003906 9.390625 8.730469 9.105469 C 8.699219 9.066406 8.667969 9.03125 8.632812 8.988281 C 8.554688 8.882812 8.554688 8.882812 8.421875 8.851562 C 8.421875 8.765625 8.421875 8.679688 8.421875 8.59375 Z M 8.421875 8.59375 "/>
<path style=" stroke:none;fill-rule:nonzero;fill:rgb(78.823531%,81.960785%,83.529413%);fill-opacity:1;" d="M 13.449219 18.089844 C 13.078125 18.335938 12.699219 18.558594 12.292969 18.753906 C 12.238281 18.78125 12.238281 18.78125 12.183594 18.808594 C 11.9375 18.921875 11.691406 19.007812 11.429688 19.078125 C 11.519531 18.980469 11.605469 18.917969 11.71875 18.855469 C 11.75 18.835938 11.78125 18.820312 11.8125 18.800781 C 11.847656 18.785156 11.882812 18.765625 11.914062 18.746094 C 11.984375 18.710938 12.054688 18.671875 12.125 18.632812 C 12.160156 18.613281 12.195312 18.59375 12.230469 18.574219 C 12.347656 18.511719 12.464844 18.441406 12.582031 18.375 C 13.203125 18.007812 13.203125 18.007812 13.449219 18.089844 Z M 13.449219 18.089844 "/>
<path style=" stroke:none;fill-rule:nonzero;fill:rgb(78.039217%,81.568629%,82.745099%);fill-opacity:1;" d="M 1.933594 16.542969 C 1.964844 16.574219 1.996094 16.605469 2.027344 16.636719 C 2.144531 16.753906 2.265625 16.855469 2.394531 16.960938 C 2.613281 17.136719 2.613281 17.136719 2.707031 17.230469 C 2.335938 17.203125 1.996094 17.101562 1.71875 16.84375 C 1.789062 16.746094 1.859375 16.644531 1.933594 16.542969 Z M 1.933594 16.542969 "/>
</g>
</svg>
